<svg width="107" height="32" viewBox="0 0 107 32" fill="none" xmlns="http://www.w3.org/2000/svg">
<path d="M104.863 27.9506C104.863 29.2538 103.799 30.3178 102.471 30.3178H3.72187C2.39337 30.3178 1.32544 29.2526 1.32544 27.9506V4.08887C1.32544 2.78646 2.39454 1.71777 3.72187 1.71777H102.47C103.797 1.71777 104.862 2.7852 104.862 4.08887L104.863 27.9506Z" stroke="#B99855" stroke-width="1.25"/>
<path d="M23.7119 15.853C23.6891 13.335 25.7889 12.11 25.8849 12.053C24.6957 10.3319 22.8525 10.0968 22.2047 10.078C20.6566 9.91629 19.155 10.9975 18.3663 10.9975C17.562 10.9975 16.3476 10.0936 15.0388 10.1202C13.3545 10.146 11.7788 11.1139 10.9147 12.6171C9.13125 15.6819 10.4613 20.1858 12.17 22.6632C13.0247 23.8764 14.0235 25.2311 15.3307 25.1835C16.6097 25.1311 17.0874 24.3741 18.6308 24.3741C20.16 24.3741 20.6086 25.1835 21.9419 25.153C23.3144 25.1311 24.1786 23.9343 25.0034 22.71C25.9912 21.3194 26.3878 19.9499 26.4036 19.8796C26.3713 19.8686 23.7379 18.871 23.7119 15.853Z" fill="white"/>
<path d="M21.1935 8.44942C21.8813 7.59551 22.352 6.43379 22.2213 5.25488C21.2257 5.29863 19.9806 5.93848 19.2637 6.77363C18.6293 7.50957 18.0626 8.71582 18.209 9.8502C19.3274 9.93301 20.4757 9.29004 21.1935 8.44942Z" fill="white"/>
<path d="M42.2207 25.0092H40.4333L39.4542 21.9553H36.0511L35.1184 25.0092H33.3783L36.75 14.6123H38.8325L42.2207 25.0092ZM39.1591 20.674L38.2737 17.9592C38.18 17.6818 38.0045 17.0287 37.7456 16.0006H37.7141C37.611 16.4428 37.4449 17.0959 37.2167 17.9592L36.347 20.674H39.1591Z" fill="white"/>
<path d="M50.8914 21.1686C50.8914 22.4436 50.5443 23.4514 49.8502 24.1912C49.2284 24.8498 48.4563 25.1787 47.5347 25.1787C46.5399 25.1787 45.8253 24.824 45.39 24.1146H45.3585V28.0639H43.6806V19.9803C43.6806 19.1787 43.6593 18.3561 43.6184 17.5123H45.0941L45.1878 18.7006H45.2192C45.7788 17.8053 46.628 17.3584 47.7677 17.3584C48.6586 17.3584 49.4023 17.7076 49.9973 18.4068C50.5939 19.1068 50.8914 20.0271 50.8914 21.1686ZM49.182 21.2295C49.182 20.4998 49.0167 19.8982 48.6846 19.4248C48.3217 18.9311 47.8346 18.6842 47.2238 18.6842C46.8098 18.6842 46.4336 18.8217 46.0976 19.0928C45.7607 19.3662 45.5404 19.7232 45.4372 20.1654C45.3853 20.3717 45.3593 20.5404 45.3593 20.6732V21.9232C45.3593 22.4686 45.5278 22.9287 45.8646 23.3045C46.2015 23.6803 46.6391 23.8678 47.1774 23.8678C47.8094 23.8678 48.3013 23.6256 48.6531 23.1428C49.0057 22.6592 49.182 22.0217 49.182 21.2295Z" fill="white"/>
<path d="M59.5781 21.1686C59.5781 22.4436 59.231 23.4514 58.5361 24.1912C57.9151 24.8498 57.143 25.1787 56.2214 25.1787C55.2266 25.1787 54.512 24.824 54.0775 24.1146H54.046V28.0639H52.3681V19.9803C52.3681 19.1787 52.3468 18.3561 52.3059 17.5123H53.7816L53.8753 18.7006H53.9067C54.4655 17.8053 55.3148 17.3584 56.4552 17.3584C57.3453 17.3584 58.0891 17.7076 58.6856 18.4068C59.2798 19.1068 59.5781 20.0271 59.5781 21.1686ZM57.8687 21.2295C57.8687 20.4998 57.7026 19.8982 57.3705 19.4248C57.0077 18.9311 56.5221 18.6842 55.9105 18.6842C55.4958 18.6842 55.1204 18.8217 54.7835 19.0928C54.4466 19.3662 54.2271 19.7232 54.124 20.1654C54.0728 20.3717 54.046 20.5404 54.046 20.6732V21.9232C54.046 22.4686 54.2145 22.9287 54.5497 23.3045C54.8866 23.6795 55.3242 23.8678 55.8641 23.8678C56.4961 23.8678 56.988 23.6256 57.3398 23.1428C57.6924 22.6592 57.8687 22.0217 57.8687 21.2295Z" fill="white"/>
<path d="M69.2901 22.0936C69.2901 22.9779 68.9808 23.6975 68.3599 24.2529C67.6775 24.86 66.7275 25.1631 65.5069 25.1631C64.3798 25.1631 63.4763 24.9475 62.7924 24.5154L63.1812 23.1271C63.9178 23.5693 64.7261 23.7912 65.6068 23.7912C66.2388 23.7912 66.7307 23.649 67.0841 23.3662C67.4359 23.0834 67.6114 22.7037 67.6114 22.2303C67.6114 21.8084 67.4666 21.4529 67.1761 21.1646C66.8873 20.8764 66.4049 20.6084 65.7312 20.3607C63.8974 19.6818 62.9813 18.6873 62.9813 17.3795C62.9813 16.5248 63.3024 15.824 63.9454 15.2787C64.586 14.7326 65.4407 14.46 66.5095 14.46C67.4626 14.46 68.2544 14.6248 68.8864 14.9537L68.4669 16.3115C67.8766 15.9928 67.2092 15.8334 66.4623 15.8334C65.872 15.8334 65.4108 15.9779 65.0803 16.2654C64.8009 16.5225 64.6608 16.8357 64.6608 17.2068C64.6608 17.6178 64.8206 17.9576 65.1417 18.2248C65.4211 18.4717 65.9287 18.7389 66.6654 19.0271C67.5665 19.3873 68.2284 19.8084 68.6542 20.2912C69.0784 20.7725 69.2901 21.3748 69.2901 22.0936Z" fill="white"/>
<path d="M74.8377 18.7615H72.9882V22.4014C72.9882 23.3272 73.314 23.7897 73.9672 23.7897C74.2671 23.7897 74.5158 23.7639 74.7126 23.7123L74.759 24.9772C74.4284 25.0998 73.9932 25.1615 73.4541 25.1615C72.7914 25.1615 72.2735 24.9607 71.8997 24.56C71.5274 24.1584 71.3401 23.485 71.3401 22.5389V18.76H70.2383V17.51H71.3401V16.1373L72.9882 15.6436V17.51H74.8377V18.7615Z" fill="white"/>
<path d="M83.1829 21.2002C83.1829 22.3525 82.8508 23.2986 82.1881 24.0385C81.4931 24.8002 80.5707 25.1799 79.4209 25.1799C78.3127 25.1799 77.4304 24.815 76.7725 24.0854C76.1145 23.3557 75.7855 22.4346 75.7855 21.3244C75.7855 20.1627 76.1239 19.2111 76.8032 18.4713C77.4808 17.7307 78.3953 17.3604 79.5452 17.3604C80.6534 17.3604 81.5451 17.7252 82.218 18.4557C82.8618 19.1643 83.1829 20.0791 83.1829 21.2002ZM81.442 21.2541C81.442 20.5627 81.2932 19.9697 80.9918 19.4752C80.64 18.8768 80.1371 18.5783 79.4854 18.5783C78.8109 18.5783 78.2985 18.8775 77.9467 19.4752C77.6453 19.9705 77.4965 20.5729 77.4965 21.2854C77.4965 21.9768 77.6453 22.5697 77.9467 23.0635C78.3096 23.6619 78.8164 23.9604 79.4704 23.9604C80.1111 23.9604 80.614 23.6557 80.9768 23.0479C81.2861 22.5439 81.442 21.9447 81.442 21.2541Z" fill="white"/>
<path d="M88.6368 18.9771C88.4708 18.9467 88.2937 18.9311 88.1079 18.9311C87.5177 18.9311 87.0612 19.1521 86.7401 19.5951C86.4607 19.9857 86.3206 20.4795 86.3206 21.0756V25.0092H84.6434L84.6592 19.8732C84.6592 19.0092 84.6379 18.2225 84.5962 17.5131H86.0577L86.1191 18.9475H86.1655C86.3426 18.4545 86.622 18.0576 87.0045 17.76C87.3784 17.492 87.7821 17.3584 88.2173 17.3584C88.3724 17.3584 88.5125 17.3693 88.6368 17.3889V18.9771Z" fill="white"/>
<path d="M96.1415 20.9045C96.1415 21.2029 96.1219 21.4545 96.0801 21.66H91.0463C91.0659 22.4006 91.3091 22.967 91.7766 23.3576C92.2008 23.7068 92.7494 23.8818 93.4231 23.8818C94.1684 23.8818 94.8484 23.7639 95.46 23.5271L95.7228 24.6834C95.0082 24.9928 94.1645 25.1467 93.1909 25.1467C92.0198 25.1467 91.1006 24.8045 90.4316 24.1209C89.7642 23.4373 89.4297 22.5193 89.4297 21.3678C89.4297 20.2373 89.7406 19.2959 90.3631 18.5451C91.0148 17.7436 91.8955 17.3428 93.0036 17.3428C94.0921 17.3428 94.9161 17.7436 95.4757 18.5451C95.9188 19.1818 96.1415 19.9693 96.1415 20.9045ZM94.5415 20.4725C94.5525 19.9787 94.4431 19.5521 94.2157 19.192C93.9252 18.7287 93.479 18.4975 92.8785 18.4975C92.3299 18.4975 91.8837 18.7232 91.5429 19.1764C91.2635 19.5365 91.0974 19.9686 91.0463 20.4717H94.5415V20.4725Z" fill="white"/>
<path d="M38.6041 8.21621C38.6041 9.13574 38.3262 9.82793 37.7714 10.2928C37.2574 10.7217 36.5271 10.9365 35.581 10.9365C35.112 10.9365 34.7106 10.9162 34.3745 10.8756V5.85137C34.8129 5.78105 35.2851 5.74512 35.7951 5.74512C36.6963 5.74512 37.3755 5.93965 37.8335 6.32871C38.3467 6.76855 38.6041 7.39746 38.6041 8.21621ZM37.7344 8.23887C37.7344 7.64277 37.5754 7.18574 37.2574 6.86699C36.9395 6.54902 36.4751 6.38965 35.8636 6.38965C35.6039 6.38965 35.3827 6.40684 35.1993 6.44277V10.2623C35.3009 10.2779 35.4866 10.285 35.7565 10.285C36.3878 10.285 36.8749 10.1107 37.2181 9.76231C37.5612 9.41387 37.7344 8.90606 37.7344 8.23887Z" fill="white"/>
<path d="M43.2155 9.02168C43.2155 9.58809 43.0526 10.0521 42.7268 10.4162C42.3852 10.7904 41.9327 10.9771 41.3676 10.9771C40.8229 10.9771 40.3893 10.7982 40.0658 10.4389C39.7431 10.0803 39.5818 9.62793 39.5818 9.08262C39.5818 8.5123 39.7479 8.04434 40.0816 7.68105C40.4153 7.31777 40.8639 7.13574 41.429 7.13574C41.9736 7.13574 42.4112 7.31465 42.7425 7.67324C43.0573 8.02168 43.2155 8.47168 43.2155 9.02168ZM42.36 9.04824C42.36 8.7084 42.286 8.41699 42.1389 8.17402C41.9657 7.88027 41.7194 7.7334 41.3991 7.7334C41.0677 7.7334 40.8159 7.88027 40.6427 8.17402C40.4947 8.41699 40.4216 8.71309 40.4216 9.06309C40.4216 9.40293 40.4955 9.69434 40.6427 9.9373C40.8214 10.2311 41.0701 10.3779 41.3912 10.3779C41.706 10.3779 41.9531 10.2287 42.131 9.92949C42.2837 9.68184 42.36 9.38809 42.36 9.04824Z" fill="white"/>
<path d="M49.3981 7.20801L48.2372 10.8908H47.4817L47.0008 9.2916C46.8788 8.89238 46.7796 8.49551 46.7025 8.10176H46.6875C46.6159 8.50645 46.5168 8.90254 46.3893 9.2916L45.8785 10.8908H45.1143L44.0226 7.20801H44.8703L45.2898 8.95879C45.3913 9.37285 45.4747 9.76738 45.5416 10.1408H45.5566C45.618 9.83301 45.7195 9.44082 45.8627 8.9666L46.3893 7.20879H47.0614L47.5659 8.9291C47.6879 9.34863 47.787 9.75254 47.8634 10.1416H47.8862C47.9421 9.7627 48.0263 9.35879 48.1381 8.9291L48.5882 7.20879H49.3981V7.20801Z" fill="white"/>
<path d="M53.6742 10.89H52.8494V8.78066C52.8494 8.13066 52.6007 7.80566 52.1017 7.80566C51.8569 7.80566 51.6594 7.89473 51.5059 8.07363C51.354 8.25254 51.2769 8.46348 51.2769 8.70488V10.8893H50.4521V8.25957C50.4521 7.93613 50.4419 7.58535 50.4222 7.20566H51.147L51.1856 7.78145H51.2084C51.3045 7.60254 51.4477 7.45488 51.6358 7.33691C51.8593 7.19941 52.1096 7.12988 52.3835 7.12988C52.7298 7.12988 53.0178 7.24082 53.2469 7.46348C53.5318 7.73613 53.6742 8.14316 53.6742 8.68379V10.89Z" fill="white"/>
<path d="M55.9487 10.8912H55.1246V5.51855H55.9487V10.8912Z" fill="white"/>
<path d="M60.8049 9.02168C60.8049 9.58809 60.642 10.0521 60.3161 10.4162C59.9746 10.7904 59.5212 10.9771 58.9569 10.9771C58.4115 10.9771 57.9779 10.7982 57.6552 10.4389C57.3325 10.0803 57.1711 9.62793 57.1711 9.08262C57.1711 8.5123 57.3372 8.04434 57.6709 7.68105C58.0046 7.31777 58.4532 7.13574 59.0175 7.13574C59.5629 7.13574 59.9997 7.31465 60.3319 7.67324C60.6467 8.02168 60.8049 8.47168 60.8049 9.02168ZM59.9486 9.04824C59.9486 8.7084 59.8746 8.41699 59.7274 8.17402C59.5551 7.88027 59.3079 7.7334 58.9884 7.7334C58.6563 7.7334 58.4044 7.88027 58.2321 8.17402C58.0841 8.41699 58.0109 8.71309 58.0109 9.06309C58.0109 9.40293 58.0849 9.69434 58.2321 9.9373C58.4107 10.2311 58.6594 10.3779 58.9805 10.3779C59.2954 10.3779 59.5417 10.2287 59.7196 9.92949C59.873 9.68184 59.9486 9.38809 59.9486 9.04824Z" fill="white"/>
<path d="M64.7968 10.8936H64.0562L63.9948 10.4693H63.972C63.7186 10.8076 63.3573 10.9771 62.8882 10.9771C62.538 10.9771 62.2547 10.8654 62.0414 10.6436C61.8478 10.442 61.751 10.1912 61.751 9.89355C61.751 9.44355 61.9399 9.10059 62.32 8.86309C62.6994 8.62559 63.233 8.50918 63.9201 8.51465V8.4459C63.9201 7.96074 63.6635 7.71855 63.1495 7.71855C62.7836 7.71855 62.4609 7.80996 62.1823 7.99121L62.0146 7.45371C62.3594 7.24199 62.7851 7.13574 63.2873 7.13574C64.2569 7.13574 64.7433 7.64355 64.7433 8.65918V10.0154C64.7433 10.3834 64.7614 10.6764 64.7968 10.8936ZM63.9405 9.62793V9.05996C63.0307 9.04434 62.5758 9.29199 62.5758 9.80215C62.5758 9.99434 62.6277 10.1381 62.734 10.2342C62.8402 10.3303 62.9756 10.3779 63.1369 10.3779C63.318 10.3779 63.4872 10.3209 63.6414 10.2076C63.7965 10.0936 63.8917 9.94902 63.9271 9.77168C63.9358 9.73184 63.9405 9.6834 63.9405 9.62793Z" fill="white"/>
<path d="M69.4836 10.8912H68.7516L68.713 10.2998H68.6902C68.4565 10.7498 68.0582 10.9748 67.4986 10.9748C67.0516 10.9748 66.6793 10.8006 66.3842 10.4521C66.0891 10.1037 65.9419 9.65137 65.9419 9.0959C65.9419 8.4998 66.1017 8.01699 66.4228 7.64824C66.7337 7.30449 67.1146 7.13262 67.5679 7.13262C68.0661 7.13262 68.4148 7.29902 68.6131 7.63262H68.6288V5.51855H69.4544V9.89902C69.4544 10.2576 69.4639 10.5881 69.4836 10.8912ZM68.6288 9.33808V8.72402C68.6288 8.61777 68.621 8.53184 68.606 8.46621C68.5596 8.26934 68.4596 8.10371 68.3077 7.97012C68.1542 7.83652 67.9693 7.76934 67.756 7.76934C67.4483 7.76934 67.2074 7.89043 67.0304 8.1334C66.8549 8.37637 66.7659 8.68652 66.7659 9.06543C66.7659 9.42949 66.8501 9.7248 67.0193 9.95215C67.198 10.1943 67.4388 10.3154 67.7403 10.3154C68.011 10.3154 68.2274 10.2146 68.3919 10.0123C68.5509 9.82558 68.6288 9.60058 68.6288 9.33808Z" fill="white"/>
<path d="M76.5376 9.02168C76.5376 9.58809 76.3746 10.0521 76.0488 10.4162C75.7072 10.7904 75.2555 10.9771 74.6896 10.9771C74.1458 10.9771 73.7121 10.7982 73.3878 10.4389C73.0652 10.0803 72.9038 9.62793 72.9038 9.08262C72.9038 8.5123 73.0699 8.04434 73.4036 7.68105C73.7373 7.31777 74.1859 7.13574 74.7518 7.13574C75.2956 7.13574 75.734 7.31465 76.0646 7.67324C76.3794 8.02168 76.5376 8.47168 76.5376 9.02168ZM75.6828 9.04824C75.6828 8.7084 75.6089 8.41699 75.4617 8.17402C75.2877 7.88027 75.0422 7.7334 74.7211 7.7334C74.3905 7.7334 74.1387 7.88027 73.9647 8.17402C73.8168 8.41699 73.7436 8.71309 73.7436 9.06309C73.7436 9.40293 73.8176 9.69434 73.9647 9.9373C74.1434 10.2311 74.3921 10.3779 74.7132 10.3779C75.028 10.3779 75.2759 10.2287 75.4538 9.92949C75.6057 9.68184 75.6828 9.38809 75.6828 9.04824Z" fill="white"/>
<path d="M80.9726 10.89H80.1486V8.78066C80.1486 8.13066 79.8999 7.80566 79.4001 7.80566C79.1554 7.80566 78.9578 7.89473 78.8051 8.07363C78.6524 8.25254 78.5761 8.46348 78.5761 8.70488V10.8893H77.7505V8.25957C77.7505 7.93613 77.7411 7.58535 77.7214 7.20566H78.4454L78.484 7.78145H78.5068C78.6036 7.60254 78.7469 7.45488 78.9342 7.33691C79.1585 7.19941 79.408 7.12988 79.6827 7.12988C80.0282 7.12988 80.3162 7.24082 80.5453 7.46348C80.831 7.73613 80.9726 8.14316 80.9726 8.68379V10.89Z" fill="white"/>
<path d="M86.5236 7.82246H85.6154V9.61152C85.6154 10.0662 85.7767 10.2936 86.0963 10.2936C86.2442 10.2936 86.367 10.2811 86.4638 10.2553L86.4851 10.8764C86.3222 10.9373 86.1081 10.9678 85.8444 10.9678C85.5186 10.9678 85.2652 10.8693 85.0818 10.6725C84.8976 10.4756 84.8063 10.1443 84.8063 9.67949V7.82246H84.264V7.20918H84.8063V6.53418L85.6146 6.29199V7.2084H86.5228V7.82246H86.5236Z" fill="white"/>
<path d="M90.8901 10.8912H90.0645V8.79746C90.0645 8.13731 89.8158 7.80684 89.3176 7.80684C88.9351 7.80684 88.6738 7.99824 88.5306 8.38106C88.5062 8.46152 88.492 8.55996 88.492 8.67559V10.8904H87.668V5.51855H88.492V7.73809H88.5077C88.7675 7.33418 89.1397 7.13262 89.6222 7.13262C89.9638 7.13262 90.2463 7.24355 90.4706 7.46621C90.75 7.74356 90.8901 8.15606 90.8901 8.70137V10.8912Z" fill="white"/>
<path d="M95.3942 8.87324C95.3942 9.02012 95.3832 9.14355 95.3635 9.24434H92.8898C92.9008 9.6084 93.0189 9.88574 93.2479 10.0779C93.4573 10.2498 93.7272 10.3357 94.0578 10.3357C94.4238 10.3357 94.7575 10.2779 95.0581 10.1615L95.1872 10.7303C94.8354 10.8818 94.4214 10.9576 93.9421 10.9576C93.3676 10.9576 92.915 10.7896 92.5876 10.4537C92.2586 10.1178 92.0957 9.66699 92.0957 9.10137C92.0957 8.5459 92.2476 8.0834 92.5538 7.71465C92.8733 7.3209 93.3054 7.12402 93.8508 7.12402C94.3844 7.12402 94.7897 7.3209 95.0636 7.71465C95.2848 8.02715 95.3942 8.41387 95.3942 8.87324ZM94.6071 8.66152C94.6134 8.41855 94.5591 8.20918 94.4474 8.03262C94.3041 7.80527 94.0861 7.69121 93.791 7.69121C93.5218 7.69121 93.3022 7.80215 93.1346 8.0248C92.9976 8.20215 92.9166 8.41387 92.8898 8.66152H94.6071Z" fill="white"/>
</svg>
