<svg width="141" height="20" viewBox="0 0 141 20" fill="none" xmlns="http://www.w3.org/2000/svg">
<path d="M18.7256 19.5442V0.0772705H23.1598V19.5442H18.7256ZM104.921 12.2712C104.921 7.56665 101.271 4.6466 96.9991 4.6466C92.7002 4.6466 89.0771 7.59368 89.0771 12.2712C89.0771 16.9757 92.7272 19.9228 96.9991 19.9228C101.271 19.9228 104.921 16.9486 104.921 12.2712ZM100.541 12.2712C100.541 14.7316 98.8917 16.1105 96.9721 16.1105C95.0524 16.1105 93.4031 14.7316 93.4031 12.2712C93.4031 9.78372 95.0524 8.45888 96.9721 8.45888C98.8917 8.45888 100.541 9.78372 100.541 12.2712ZM16.9412 13.9475C16.9412 11.7575 15.8056 10.0811 13.7778 9.32408C15.6975 8.26962 16.3734 6.89071 16.3734 5.26846C16.3734 2.42953 14.3185 0.0772705 9.72217 0.104308H0.907959V19.5713H10.1007C14.7241 19.5442 16.9412 17.2461 16.9412 13.9475ZM11.6689 5.83625C11.6689 7.16109 10.8307 7.91813 9.20846 7.91813H5.53137V3.86252H9.20846C10.6955 3.86252 11.6689 4.51141 11.6689 5.83625ZM12.0744 13.6501C12.0744 14.9208 11.1822 15.759 9.53291 15.759H5.53137V11.5412H9.53291C11.1281 11.5412 12.0744 12.3523 12.0744 13.6501ZM55.5507 8.62111C54.334 6.07959 52.0628 4.67364 48.6291 4.67364C44.5735 4.67364 40.9504 7.21516 40.9504 12.2712C40.9504 17.192 44.1409 19.9228 48.575 19.9228C51.6843 19.9228 54.3069 18.679 55.5507 16.0023L51.9817 14.1638C51.3328 15.3534 50.3324 16.1105 48.7372 16.1105C46.6824 16.1105 45.3576 14.6505 45.3576 12.2712C45.3576 9.89187 46.8717 8.45888 48.7102 8.45888C50.1432 8.45888 51.2247 9.10778 51.9006 10.5137L55.5507 8.62111ZM120.9 8.62111C119.684 6.07959 117.412 4.67364 113.979 4.67364C109.923 4.67364 106.3 7.21516 106.3 12.2712C106.3 17.192 109.49 19.9228 113.925 19.9228C117.034 19.9228 119.657 18.679 120.9 16.0023L117.331 14.1638C116.682 15.3534 115.682 16.1105 114.087 16.1105C112.032 16.1105 110.707 14.6505 110.707 12.2712C110.707 9.89187 112.221 8.45888 114.06 8.45888C115.493 8.45888 116.574 9.10778 117.25 10.5137L120.9 8.62111ZM83.7237 19.5442L80.0196 13.0012H77.1806V19.5442H72.6113V0.0772705H80.8577C85.3189 0.0772705 88.4282 2.21323 88.4282 6.40404C88.4282 9.08075 87.1034 10.9734 84.7511 12.136L89.0231 19.5442H83.7237ZM77.2077 9.13482H80.6144C82.7233 9.13482 83.7508 7.94517 83.7508 6.53922C83.7508 4.8629 82.7774 3.94363 80.6144 3.94363H77.2077V9.13482ZM40.2204 19.3009V16.2457C40.0312 16.2997 39.7608 16.3538 39.4634 16.3538C38.8956 16.3538 38.5982 16.0564 38.5982 15.5427V10.4867C38.5982 6.70145 36.0567 4.70068 31.8659 4.70068C29.1351 4.70068 26.8099 5.70106 25.3498 6.99886L27.8102 9.75668C28.7836 8.89148 30.0814 8.35073 31.3521 8.35073C33.2988 8.35073 34.2181 9.32408 34.2181 10.9193V11.3789C33.2988 11.1626 32.1362 10.9463 30.7303 10.9463C27.1884 10.9463 24.8902 12.6497 24.8902 15.4616C24.8902 18.3546 26.8099 19.8687 29.784 19.8687C31.8118 19.8687 33.6233 19.0305 34.5696 17.949C35.1374 19.382 36.3811 19.7605 37.5978 19.7605C38.436 19.7876 39.4093 19.6524 40.2204 19.3009ZM34.2452 14.7316C34.2452 16.0564 32.9744 16.9216 31.5144 16.9216C30.1355 16.9216 29.4595 16.2186 29.4595 15.2453C29.4595 14.2179 30.2166 13.4608 31.7577 13.4608C32.704 13.4608 33.5422 13.623 34.2452 13.7853V14.7316ZM136.744 19.5442L131.526 10.4867L136.42 5.16031H131.499L126.335 10.8923V0.104308H121.928V19.5713H126.335V16.0564L128.444 13.8123L131.742 19.5713H136.744V19.5442ZM71.4487 19.5442L66.2305 10.4867L71.1243 5.16031H66.1494L61.0393 10.8923V0.104308H56.6322V19.5713H61.0393V16.0564L63.1482 13.8123L66.4468 19.5713H71.4487V19.5442ZM139.448 16.8405C140.367 16.8405 140.908 17.4083 140.908 18.2735C140.908 19.1387 140.367 19.7065 139.448 19.7065C138.529 19.7065 137.988 19.1387 137.988 18.2735C137.988 17.4083 138.529 16.8405 139.448 16.8405ZM139.448 19.5172C140.178 19.5172 140.665 19.0846 140.665 18.2735C140.665 17.4624 140.151 17.0298 139.448 17.0298C138.718 17.0298 138.231 17.4624 138.231 18.2735C138.204 19.1116 138.718 19.5172 139.448 19.5172ZM138.88 17.5435H139.475C139.826 17.5435 140.016 17.7327 140.016 18.0031C140.016 18.2464 139.908 18.3816 139.718 18.4627L139.989 18.9765H139.718L139.475 18.5168H139.151V18.9765H138.88V17.5435ZM139.151 17.7598V18.2735H139.448C139.637 18.2735 139.745 18.2194 139.745 18.0301C139.745 17.8679 139.664 17.7868 139.475 17.7868H139.151V17.7598Z" fill="white"/>
</svg>
