<svg width="181" height="38" viewBox="0 0 181 38" fill="none" xmlns="http://www.w3.org/2000/svg">
<path d="M10.0951 16.4117C10.0951 17.1067 10.0576 17.585 9.92757 17.7859C9.81924 17.9692 9.59924 18.0409 9.15924 18.0609L8.28007 18.1159V18.665C9.23424 18.6292 10.0951 18.6117 10.9934 18.6117C11.8359 18.6117 12.6967 18.6292 13.6517 18.665V18.1159L12.7701 18.0609C12.3326 18.0409 12.1101 17.9692 12.0017 17.7859C11.8726 17.585 11.8359 17.1067 11.8359 16.4117V8.65587C11.8359 7.95921 11.8534 7.37421 11.9101 6.82337H14.7517C15.3009 6.82337 15.4476 6.98837 15.4834 7.42837L15.5559 8.87671H16.1259C16.1259 7.88504 16.1617 6.8792 16.2534 5.92504C14.9334 5.92504 13.6142 5.98004 12.2942 5.98004H9.6359C8.3159 5.98004 6.9959 5.92504 5.6759 5.92504C5.76924 6.8792 5.80424 7.88504 5.80424 8.87671H6.37257L6.4459 7.42837C6.4834 6.98837 6.63174 6.82337 7.18007 6.82337H10.0217C10.0767 7.37421 10.0951 7.95921 10.0951 8.65587V16.4117Z" fill="white"/>
<path d="M18.5722 16.9242C18.5722 17.95 18.3531 18.1525 16.9231 18.1525V18.665C17.6931 18.6467 18.4631 18.6117 19.2331 18.6117C20.0947 18.6117 20.9747 18.6467 21.7997 18.665V18.1525C20.4789 18.1525 20.2247 18.0609 20.2247 16.9242V14.1934C20.9556 14.1734 21.7256 14.1575 22.5864 14.1575C23.4481 14.1575 24.2189 14.1734 24.9522 14.1934V16.9242C24.9522 18.0609 24.6956 18.1525 23.3756 18.1525V18.665C24.2022 18.6467 25.0789 18.6117 25.9414 18.6117C26.7122 18.6117 27.4814 18.6467 28.2514 18.665V18.1525C26.8222 18.1525 26.6031 17.95 26.6031 16.9242V11.315C26.6031 10.2317 26.8589 10.1975 28.3256 10.1975V9.68337C27.5731 9.70171 26.6031 9.73754 25.8864 9.73754C25.0439 9.73754 24.3289 9.70171 23.3756 9.68337V10.1975C24.7506 10.1975 24.9522 10.2317 24.9522 11.315V13.5342C24.2189 13.55 23.4481 13.5684 22.5864 13.5684C21.7256 13.5684 20.9556 13.55 20.2247 13.5342V11.315C20.2247 10.2317 20.4247 10.1975 21.7997 10.1975V9.68337C20.8456 9.70171 20.1314 9.73754 19.2889 9.73754C18.5722 9.73754 17.6006 9.70171 16.8497 9.68337V10.1975C18.3181 10.1975 18.5722 10.2317 18.5722 11.315V16.9242Z" fill="white"/>
<path d="M31.6204 16.631C31.6204 17.9335 31.5104 18.1535 30.0438 18.1535V18.666C30.9421 18.6477 31.5854 18.6127 32.4088 18.6127C33.2888 18.6127 34.1863 18.666 35.2488 18.666C36.1113 18.666 37.0104 18.6477 37.7438 18.5752C37.8163 17.8593 37.8704 17.0177 37.8888 16.081H37.4129C37.3213 16.6877 37.1938 17.236 37.0104 17.7318C36.5696 17.8593 35.7621 17.951 34.9571 17.951C34.3338 17.951 33.8388 17.916 33.3429 17.8777C33.2888 17.0177 33.2688 15.8077 33.2688 14.3402C33.5638 14.3218 33.8579 14.3043 34.3146 14.3043C35.9088 14.3043 36.0563 14.5227 36.0563 15.6777H36.6071C36.5879 15.1652 36.5696 14.5427 36.5696 13.9727C36.5696 13.4793 36.5879 12.9085 36.6071 12.4152H36.0563C36.0563 13.4427 35.9088 13.6443 35.0304 13.6443C34.1863 13.6443 33.6929 13.6268 33.2688 13.6068C33.2688 12.5443 33.2521 11.351 33.3079 10.3985C33.6371 10.3435 34.0221 10.2877 34.4613 10.2877C35.3413 10.2877 36.2221 10.3435 36.9354 10.4727C37.0454 10.8568 37.0638 11.2418 37.1196 11.936H37.6338C37.6704 11.0577 37.7438 10.3619 37.8529 9.73852C37.2671 9.64685 36.3679 9.59268 35.6346 9.59268C34.9746 9.59268 34.2963 9.62935 33.6371 9.66435C32.9763 9.70185 32.3163 9.73852 31.6388 9.73852C30.9979 9.73852 30.4846 9.70185 29.9163 9.68435V10.1793C31.2904 10.1793 31.6204 10.2527 31.6204 11.461V16.631Z" fill="white"/>
<path d="M56.2271 17.0756L56.0638 16.8923C55.2196 17.5148 53.6613 17.9906 52.3429 17.9906C48.7121 17.9906 46.3113 15.6464 46.3113 12.0139C46.3113 8.89809 48.1254 6.38726 51.5721 6.38726C52.2504 6.38726 53.0388 6.49642 53.6238 6.69809C54.4671 7.01059 55.2013 7.32226 55.2013 7.83642V9.15392H55.7688C55.7688 8.20309 55.9354 7.23059 56.1179 6.36726C55.2379 6.05809 53.5879 5.61809 51.8829 5.61809C49.8304 5.61809 47.9596 6.24142 46.5863 7.37809C45.1746 8.53142 44.3496 10.2014 44.3496 12.3089C44.3496 16.4706 47.3188 18.9806 51.7171 18.9806C52.8363 18.9806 54.6513 18.6331 55.7163 17.9906L56.2271 17.0756Z" fill="white"/>
<path d="M60.9984 11.46L62.5384 15.055C61.9326 15.0717 61.4568 15.0909 60.8693 15.0909C60.3376 15.0909 59.8609 15.0717 59.3859 15.055L60.9984 11.46ZM61.0901 9.4817L58.0468 16.1717C57.2226 18.0409 56.9284 18.1525 56.1051 18.1525V18.665C56.9284 18.6467 57.3493 18.6117 57.8993 18.6117C58.5593 18.6117 59.2009 18.6467 59.8051 18.665V18.1525C58.8718 18.1525 58.4501 18.0067 58.4501 17.4934C58.4501 16.815 58.9076 16.2109 59.0734 15.8234C59.6968 15.8067 60.3201 15.7892 60.9251 15.7892C61.5668 15.7892 62.1901 15.8067 62.8118 15.8234C63.0501 16.3375 63.5451 17.255 63.5451 17.6559C63.5451 18.0067 63.2701 18.1525 62.1901 18.1525V18.665C62.9959 18.6467 63.6751 18.6117 64.4434 18.6117C65.2318 18.6117 66.3309 18.6467 66.6251 18.665V18.1525C65.9293 18.1525 65.5434 18.0792 64.9751 16.7242L61.7851 9.4817H61.0901Z" fill="white"/>
<path d="M67.5166 18.666C68.3608 18.6477 69.1874 18.6127 70.0116 18.6127C71.3483 18.6127 71.9916 18.6477 72.4308 18.666V18.1535C71.0366 18.1535 70.8166 18.1168 70.8166 17.256V10.4727C71.1466 10.326 71.5883 10.2877 71.9916 10.2877C73.3099 10.2877 73.9358 10.8193 73.9358 12.011C73.9358 13.1127 73.0916 13.9177 71.9916 13.9177C71.7341 13.9177 71.5333 13.9002 71.3308 13.8818L71.2574 14.1743L74.9224 18.6127H77.1966V18.1535C76.6291 18.1535 76.4816 18.0077 76.1158 17.566L73.3099 14.1368C74.1899 13.8077 75.7666 13.3693 75.7666 11.6635C75.7666 10.1402 74.5574 9.68435 72.9249 9.68435C71.9541 9.68435 70.8899 9.73852 69.9374 9.73852C69.0574 9.73852 68.3058 9.68435 67.5166 9.68435V10.1977C69.0208 10.1977 69.1666 10.326 69.1666 11.2793V17.0343C69.1666 18.1168 68.8366 18.1535 67.5166 18.1535V18.666Z" fill="white"/>
<path d="M80.3067 16.7052C80.3067 17.9152 80.0492 18.0243 79.2426 18.1535V18.666C79.8859 18.6477 80.3792 18.6118 81.1492 18.6118C82.0092 18.6118 82.5417 18.666 84.3017 18.666C85.1084 18.666 85.9517 18.6477 86.5559 18.6118C86.6109 17.7493 86.7042 16.9793 86.8676 16.191H86.3184L85.9517 17.6777C85.4384 17.8585 84.4117 17.9327 83.2751 17.9327C82.7626 17.9327 82.3951 17.9152 82.0292 17.896C81.9742 17.3102 81.9551 16.8152 81.9551 16.191V11.3335C81.9551 10.2144 82.3584 10.1977 83.5326 10.1977V9.68352C82.5234 9.70185 81.6267 9.73852 81.0009 9.73852C80.1592 9.73852 79.4992 9.70185 78.6567 9.68352V10.1977C80.0126 10.1977 80.3067 10.2144 80.3067 11.0577V16.7052Z" fill="white"/>
<path d="M88.8005 18.666C89.6005 18.6477 90.2563 18.6127 91.2055 18.6127C91.8638 18.6127 92.8172 18.6477 93.6255 18.666V18.1535C92.5247 18.1535 92.0472 18.1168 92.0472 16.8702V14.981C93.073 13.166 94.2305 11.2218 95.3097 9.99435V9.73851H94.0647C93.4047 11.0035 92.0822 13.351 91.6822 14.0652L90.038 11.0218C89.618 10.2327 89.1463 9.73852 88.673 9.57268C88.1638 9.72185 87.3572 9.79352 86.7888 9.88518V10.3985C87.4488 10.3985 87.6522 10.5077 88.4172 11.5893C88.9105 12.286 89.583 13.3877 90.403 14.8702V17.2735C90.403 17.8777 90.1463 18.1535 88.8005 18.1535V18.666Z" fill="white"/>
<path d="M98.3412 16.7052C98.3412 17.9152 98.0862 18.0243 97.277 18.1535V18.666C97.9203 18.6477 98.4153 18.6118 99.1845 18.6118C100.045 18.6118 100.58 18.666 102.338 18.666C103.145 18.666 103.987 18.6477 104.594 18.6118C104.65 17.7493 104.739 16.9793 104.907 16.191H104.355L103.987 17.6777C103.476 17.8585 102.45 17.9327 101.313 17.9327C100.797 17.9327 100.43 17.9152 100.063 17.896C100.009 17.3102 99.9903 16.8152 99.9903 16.191V11.3335C99.9903 10.2144 100.395 10.1977 101.57 10.1977V9.68352C100.559 9.70185 99.6612 9.73852 99.0387 9.73852C98.1945 9.73852 97.5353 9.70185 96.692 9.68352V10.1977C98.0487 10.1977 98.3412 10.2144 98.3412 11.0577V16.7052Z" fill="white"/>
<path d="M107.158 16.631C107.158 17.9335 107.048 18.1535 105.58 18.1535V18.666C106.478 18.6477 107.118 18.6127 107.946 18.6127C108.827 18.6127 109.723 18.666 110.786 18.666C111.648 18.666 112.547 18.6477 113.281 18.5752C113.353 17.8593 113.408 17.0177 113.425 16.081H112.951C112.858 16.6877 112.731 17.236 112.547 17.7318C112.108 17.8593 111.301 17.951 110.493 17.951C109.871 17.951 109.374 17.916 108.877 17.8777C108.827 17.0177 108.806 15.8077 108.806 14.3402C109.098 14.3218 109.394 14.3043 109.851 14.3043C111.448 14.3043 111.594 14.5227 111.594 15.6777H112.143C112.125 15.1652 112.108 14.5427 112.108 13.9727C112.108 13.4793 112.125 12.9085 112.143 12.4152H111.594C111.594 13.4427 111.448 13.6443 110.568 13.6443C109.723 13.6443 109.226 13.6268 108.806 13.6068C108.806 12.5443 108.788 11.351 108.842 10.3985C109.171 10.3435 109.558 10.2877 109.998 10.2877C110.878 10.2877 111.758 10.3435 112.474 10.4727C112.583 10.8568 112.602 11.2418 112.656 11.936H113.169C113.206 11.0577 113.281 10.3619 113.39 9.73852C112.804 9.64685 111.905 9.59268 111.17 9.59268C110.513 9.59268 109.833 9.62935 109.171 9.66435C108.513 9.70185 107.852 9.73852 107.174 9.73852C106.535 9.73852 106.021 9.70185 105.453 9.68435V10.1793C106.828 10.1793 107.158 10.2527 107.158 11.461V16.631Z" fill="white"/>
<path d="M130.038 16.8189C130.038 17.2764 130.023 17.3689 129.947 17.5689C129.839 17.8989 128.793 18.2114 127.378 18.2114C123.605 18.2114 121.477 15.5898 121.477 11.9398C121.477 8.67809 123.292 6.38809 126.776 6.38809C127.97 6.38809 128.754 6.51476 129.344 6.71559C130.204 7.02976 130.864 7.32309 130.864 8.18392V9.15392H131.431C131.431 8.20309 131.579 7.23059 131.797 6.36809C130.956 6.12976 129.526 5.61892 127.253 5.61892C122.835 5.61892 119.517 8.22142 119.517 12.2523C119.517 16.8548 122.819 18.9806 126.905 18.9806C128.169 18.9806 130.148 18.5048 131.725 18.0448V14.9664C131.725 14.4364 131.725 14.3623 131.927 14.2889L132.459 14.1064L132.387 13.6473C131.633 13.6648 130.886 13.6848 130.131 13.6848C129.398 13.6848 128.646 13.6648 127.894 13.6473V14.1973L129.413 14.3256C129.895 14.3623 130.038 14.5456 130.038 14.9664V16.8189Z" fill="white"/>
<path d="M134.222 18.666C135.064 18.6477 135.889 18.6127 136.715 18.6127C138.054 18.6127 138.697 18.6477 139.133 18.666V18.1535C137.741 18.1535 137.521 18.1168 137.521 17.256V10.4727C137.851 10.326 138.294 10.2877 138.697 10.2877C140.016 10.2877 140.638 10.8193 140.638 12.011C140.638 13.1127 139.793 13.9177 138.697 13.9177C138.439 13.9177 138.236 13.9002 138.036 13.8818L137.962 14.1743L141.626 18.6127H143.9V18.1535C143.332 18.1535 143.186 18.0077 142.818 17.566L140.016 14.1368C140.892 13.8077 142.471 13.3693 142.471 11.6635C142.471 10.1402 141.263 9.68435 139.631 9.68435C138.661 9.68435 137.596 9.73852 136.641 9.73852C135.761 9.73852 135.011 9.68435 134.222 9.68435V10.1977C135.726 10.1977 135.871 10.326 135.871 11.2793V17.0343C135.871 18.1168 135.539 18.1535 134.222 18.1535V18.666Z" fill="white"/>
<path d="M149.495 10.108C151.768 10.108 152.721 12.013 152.721 14.288C152.721 16.048 152.173 18.1363 150.01 18.1363C147.439 18.1363 146.674 15.7538 146.674 13.7388C146.674 11.428 147.917 10.108 149.495 10.108ZM149.845 9.48548C147.184 9.48548 144.839 11.1346 144.839 14.288C144.839 17.2213 147.368 18.8705 149.57 18.8705C152.684 18.8705 154.555 16.3405 154.555 13.8655C154.555 11.6113 152.996 9.48548 149.845 9.48548Z" fill="white"/>
<path d="M158.596 10.9313C158.596 10.4013 158.816 10.2005 159.991 10.1622V9.68632C158.927 9.70465 158.34 9.74132 157.756 9.74132C156.982 9.74132 156.196 9.70465 155.407 9.68632V10.2005C156.472 10.2005 156.949 10.2897 156.949 11.1155V15.4047C156.949 17.6222 157.644 18.8705 160.687 18.8705C163.766 18.8705 164.3 17.1297 164.3 15.2405V11.2988C164.3 10.3288 164.535 10.2005 165.859 10.2005V9.68632C165.381 9.70465 164.776 9.74132 163.966 9.74132C163.327 9.74132 162.667 9.70465 162.008 9.68632V10.2005C163.436 10.2005 163.566 10.3638 163.566 11.3713V15.3338C163.566 17.2005 162.667 17.918 161.071 17.918C159.184 17.918 158.596 16.9455 158.596 15.3688V10.9313Z" fill="white"/>
<path d="M168.804 17.0334C168.804 17.8767 168.474 18.1525 167.155 18.1525V18.665C167.998 18.6467 168.823 18.6117 169.647 18.6117C170.984 18.6117 171.626 18.6467 172.067 18.665V18.1525C170.673 18.0792 170.453 17.8767 170.453 17.0334V10.435C170.765 10.3425 171.113 10.2142 171.59 10.2142C172.692 10.2142 173.57 10.9109 173.57 12.01C173.57 13.15 173.02 13.9167 171.738 13.9167C171.517 13.9167 171.296 13.8625 171.15 13.7717L171.259 14.3209C171.425 14.3942 171.738 14.4692 172.067 14.4692C174.265 14.4692 175.29 13.0184 175.29 11.7892C175.29 10.5442 174.669 9.59171 172.196 9.59171C171.72 9.59171 171.242 9.62837 170.784 9.66337C170.325 9.70171 169.887 9.73754 169.409 9.73754C168.655 9.73754 167.668 9.70171 167.155 9.68337V10.1975C168.655 10.1975 168.804 10.325 168.804 11.2784V17.0334Z" fill="white"/>
<path d="M0.599976 0.854075H180.6V0.193237H0.599976V0.854075Z" fill="white"/>
<path d="M0.599976 25.7326H180.6V25.0718H0.599976V25.7326Z" fill="white"/>
<path d="M14.2628 35.5893V37.1734C13.9795 37.2409 13.7978 37.2684 13.582 37.2684C12.5503 37.2684 11.957 36.6343 11.957 35.5351C11.957 34.5109 12.557 33.8834 13.5411 33.8834C13.9328 33.8834 14.3836 34.0051 14.6603 34.1801C14.7545 34.2409 14.7745 34.2543 14.7945 34.2543C14.8011 34.2543 14.8153 34.2476 14.8353 34.2409L14.9561 34.1734C14.9836 34.1601 14.997 34.1401 14.997 34.1259V34.0993L14.9703 33.6684C14.9703 33.5809 14.9628 33.5601 14.9028 33.5334C14.7136 33.4526 14.047 33.3518 13.6628 33.3518C12.0711 33.3518 10.9736 34.2884 10.9736 35.6501C10.9736 36.3784 11.2903 37.0118 11.842 37.3893C12.247 37.6584 12.7728 37.7926 13.4403 37.7926C13.9928 37.7926 14.5728 37.7126 15.1986 37.5576V35.5893H14.2628ZM16.6986 33.4393V37.7118H19.6161V37.1468H17.6345V33.4393H16.6986ZM22.8203 33.3584C22.1328 33.3584 21.5936 33.5334 21.0811 33.9243C20.5428 34.3351 20.2595 34.9151 20.2595 35.6093C20.2595 36.2634 20.5286 36.8701 20.987 37.2609C21.3978 37.6109 21.9645 37.7993 22.632 37.7993C24.1553 37.7993 25.1861 36.8901 25.1861 35.5484C25.1861 34.2343 24.2428 33.3584 22.8203 33.3584ZM22.6453 33.8901C23.562 33.8901 24.2028 34.6184 24.2028 35.6701C24.2028 36.2301 24.0278 36.6543 23.677 36.9509C23.427 37.1534 23.1103 37.2684 22.787 37.2684C21.897 37.2684 21.2428 36.5334 21.2428 35.5218C21.2428 34.5576 21.8161 33.8901 22.6453 33.8901ZM26.5061 37.7118H28.1703C29.2695 37.7118 29.9561 37.2076 29.9561 36.3984C29.9561 35.7976 29.5995 35.3801 28.9661 35.2393C29.4578 35.0234 29.6861 34.7401 29.6861 34.3418C29.6861 34.0318 29.5178 33.7626 29.2286 33.6009C28.9728 33.4593 28.6495 33.4059 28.1095 33.4059C28.0086 33.4059 27.7795 33.4126 27.482 33.4193C27.2128 33.4259 27.112 33.4259 26.5061 33.4393V37.7118ZM27.4286 35.1651V33.9101C27.557 33.9034 27.5703 33.9034 27.6911 33.9034C27.7928 33.8968 27.8736 33.8968 27.9136 33.8968C28.487 33.8968 28.7028 34.0659 28.7028 34.5109C28.7028 34.7401 28.6353 34.9084 28.5011 35.0168C28.3595 35.1309 28.1903 35.1651 27.7453 35.1651H27.4286ZM27.4286 35.6559H27.752C28.2111 35.6559 28.4803 35.6968 28.6428 35.7843C28.8578 35.9126 28.9728 36.1351 28.9728 36.4451C28.9728 36.9643 28.6695 37.2009 28.002 37.2009C27.9278 37.2009 27.4753 37.2009 27.4286 37.1943V35.6559ZM32.7511 33.4393L30.7086 37.7118H31.5311L32.0428 36.4384H33.7011L34.1728 37.7118H35.2045L33.4453 33.4393H32.7511ZM33.5061 35.9334H32.252L32.9061 34.3151L33.5061 35.9334ZM36.2903 33.4393V37.7118H39.2078V37.1468H37.2261V33.4393H36.2903ZM43.4211 33.4393L41.3786 37.7118H42.2011L42.7128 36.4384H44.3711L44.8428 37.7118H45.8745L44.1153 33.4393H43.4211ZM44.1761 35.9334H42.922L43.5761 34.3151L44.1761 35.9334ZM46.9603 33.4393V37.7118H49.8778V37.1468H47.8961V33.4393H46.9603ZM49.7845 33.4393V34.0051H51.4628V37.7118H52.3995V34.0051H54.0778V33.4393H49.7845ZM55.0828 33.4393V37.7118H58.2636V37.1468H56.0186V35.7301H57.9603V35.1984H56.0186V33.9709H58.1895V33.4393H55.0828ZM59.4953 37.7126H60.4311V35.9126C60.5261 35.9193 60.5803 35.9193 60.6545 35.9193C60.7886 35.9193 60.877 35.9126 60.9978 35.9059C61.2945 36.5126 61.4703 36.8359 61.6586 37.0993C62.0095 37.5851 62.387 37.7926 62.8986 37.7926C63.222 37.7926 63.4036 37.7459 63.4245 37.6593L63.492 37.3893L63.4711 37.3551C62.9386 37.3959 62.5278 36.9643 61.9353 35.7376C62.5953 35.5426 62.9386 35.1518 62.9386 34.5918C62.9386 34.1734 62.7636 33.8568 62.407 33.6343C62.1245 33.4593 61.807 33.4059 61.0995 33.4059C61.0995 33.4059 60.5661 33.4193 59.4953 33.4393V37.7126ZM60.4311 33.9243C60.7011 33.9176 60.7353 33.9176 60.917 33.9176C61.2545 33.9176 61.4095 33.9376 61.5445 33.9918C61.8145 34.0926 61.9553 34.3151 61.9553 34.6459C61.9553 35.1918 61.632 35.4418 60.9236 35.4418C60.8703 35.4418 60.7886 35.4418 60.4311 35.4276V33.9243ZM64.5128 33.4393L64.4853 37.7126H65.1595L65.1053 34.6593L67.9836 37.8068L68.5361 37.6659L68.5436 33.4393H67.8695L67.9228 36.4384L65.187 33.4393H64.5128ZM71.6778 33.4393L69.6361 37.7118H70.4578L70.9703 36.4384H72.6286L73.1003 37.7118H74.132L72.3728 33.4393H71.6778ZM72.4328 35.9334H71.1795L71.8328 34.3151L72.4328 35.9334ZM74.1711 33.4393V34.0051H75.8495V37.7118H76.7853V34.0051H78.4636V33.4393H74.1711ZM79.4695 37.7118H80.4053V33.4393H79.4695V37.7118ZM81.4861 33.4393L83.2244 37.7118H83.892L85.9211 33.4393H85.0853L83.737 36.7218L82.5236 33.4393H81.4861ZM86.9044 33.4393V37.7118H90.0844V37.1468H87.8403V35.7301H89.7811V35.1984H87.8403V33.9709H90.0103V33.4393H86.9044ZM94.5336 33.4393L92.4911 37.7118H93.3136L93.8261 36.4384H95.4836L95.9561 37.7118H96.9869L95.2278 33.4393H94.5336ZM95.2886 35.9334H94.0344L94.6886 34.3151L95.2886 35.9334ZM100.719 33.6076C100.706 33.5401 100.699 33.5201 100.652 33.5001C100.504 33.4326 99.9786 33.3584 99.6619 33.3584C98.6303 33.3584 97.9436 33.8568 97.9436 34.6051C97.9436 34.8951 98.0578 35.1851 98.2528 35.3734C98.4553 35.5626 98.6903 35.6968 99.257 35.9468C99.9719 36.2501 100.094 36.3509 100.094 36.6476C100.094 37.0051 99.7903 37.2343 99.3178 37.2343C98.947 37.2343 98.4953 37.0859 98.1453 36.8434C98.132 36.8301 98.112 36.8234 98.1045 36.8234C98.0978 36.8234 98.0778 36.8301 98.0578 36.8434L97.8961 36.9309C97.862 36.9509 97.8553 36.9576 97.8553 36.9851C97.8553 36.9918 97.8553 37.0251 97.862 37.0459L97.9161 37.5101C97.9228 37.5909 97.9361 37.5976 98.0169 37.6251C98.2736 37.7118 98.8861 37.7926 99.237 37.7926C100.208 37.7926 100.942 37.2209 100.942 36.4593C100.942 36.1693 100.82 35.8926 100.619 35.7043C100.424 35.5218 100.323 35.4609 99.702 35.1776C99.2503 34.9759 99.102 34.9018 98.9736 34.8068C98.8595 34.7259 98.7919 34.5918 98.7919 34.4293C98.7919 34.0926 99.0686 33.8901 99.5203 33.8901C99.8103 33.8901 100.168 33.9918 100.389 34.1401C100.498 34.2143 100.498 34.2143 100.518 34.2143C100.531 34.2143 100.531 34.2143 100.571 34.1934L100.726 34.1126C100.767 34.0926 100.774 34.0859 100.774 34.0659L100.767 34.0051L100.719 33.6076ZM104.795 33.6076C104.782 33.5401 104.775 33.5201 104.729 33.5001C104.58 33.4326 104.054 33.3584 103.738 33.3584C102.706 33.3584 102.019 33.8568 102.019 34.6051C102.019 34.8951 102.134 35.1851 102.329 35.3734C102.531 35.5626 102.767 35.6968 103.333 35.9468C104.048 36.2501 104.169 36.3509 104.169 36.6476C104.169 37.0051 103.866 37.2343 103.394 37.2343C103.023 37.2343 102.571 37.0859 102.221 36.8434C102.208 36.8301 102.188 36.8234 102.181 36.8234C102.174 36.8234 102.154 36.8301 102.134 36.8434L101.972 36.9309C101.939 36.9509 101.931 36.9576 101.931 36.9851C101.931 36.9918 101.931 37.0251 101.939 37.0459L101.992 37.5101C101.999 37.5909 102.013 37.5976 102.093 37.6251C102.349 37.7118 102.962 37.7926 103.313 37.7926C104.284 37.7926 105.018 37.2209 105.018 36.4593C105.018 36.1693 104.896 35.8926 104.694 35.7043C104.499 35.5218 104.399 35.4609 103.778 35.1776C103.326 34.9759 103.178 34.9018 103.049 34.8068C102.935 34.7259 102.868 34.5918 102.868 34.4293C102.868 34.0926 103.144 33.8901 103.596 33.8901C103.886 33.8901 104.244 33.9918 104.465 34.1401C104.574 34.2143 104.574 34.2143 104.594 34.2143C104.607 34.2143 104.607 34.2143 104.648 34.1934L104.802 34.1126C104.843 34.0926 104.849 34.0859 104.849 34.0659L104.843 34.0051L104.795 33.6076ZM106.31 33.4393V37.7118H109.49V37.1468H107.246V35.7301H109.187V35.1984H107.246V33.9709H109.416V33.4393H106.31ZM110.264 33.4393V34.0051H111.943V37.7118H112.879V34.0051H114.557V33.4393H110.264ZM117.28 33.4393L116.991 37.7118H117.679L117.725 34.5709L119.215 37.6851L119.639 37.6184L121.184 34.6993L121.284 37.7118H122.188L122.033 33.4393H121.177L119.606 36.5126L118.124 33.4393H117.28ZM125.281 33.4393L123.239 37.7118H124.061L124.574 36.4384H126.232L126.704 37.7118H127.735L125.976 33.4393H125.281ZM126.036 35.9334H124.783L125.436 34.3151L126.036 35.9334ZM128.839 33.4393L128.813 37.7126H129.487L129.433 34.6593L132.311 37.8068L132.864 37.6659L132.87 33.4393H132.196L132.25 36.4384L129.514 33.4393H128.839ZM136.005 33.4393L133.963 37.7118H134.785L135.298 36.4384H136.955L137.428 37.7118H138.459L136.699 33.4393H136.005ZM136.76 35.9334H135.506L136.16 34.3151L136.76 35.9334ZM142.391 35.5893V37.1734C142.109 37.2409 141.926 37.2684 141.71 37.2684C140.679 37.2684 140.085 36.6343 140.085 35.5351C140.085 34.5109 140.685 33.8834 141.67 33.8834C142.061 33.8834 142.513 34.0051 142.789 34.1801C142.883 34.2409 142.904 34.2543 142.924 34.2543C142.93 34.2543 142.944 34.2476 142.964 34.2409L143.085 34.1734C143.112 34.1601 143.125 34.1401 143.125 34.1259V34.0993L143.099 33.6684C143.099 33.5809 143.092 33.5601 143.031 33.5334C142.843 33.4526 142.175 33.3518 141.791 33.3518C140.2 33.3518 139.102 34.2884 139.102 35.6501C139.102 36.3784 139.419 37.0118 139.971 37.3893C140.375 37.6584 140.901 37.7926 141.569 37.7926C142.122 37.7926 142.701 37.7126 143.328 37.5576V35.5893H142.391ZM144.827 33.4393V37.7118H148.008V37.1468H145.764V35.7301H147.704V35.1984H145.764V33.9709H147.934V33.4393H144.827ZM149.366 33.4393L149.076 37.7118H149.764L149.81 34.5709L151.3 37.6851L151.725 37.6184L153.269 34.6993L153.369 37.7118H154.273L154.118 33.4393H153.262L151.691 36.5126L150.209 33.4393H149.366ZM155.81 33.4393V37.7118H158.99V37.1468H156.746V35.7301H158.687V35.1984H156.746V33.9709H158.916V33.4393H155.81ZM160.242 33.4393L160.215 37.7126H160.889L160.835 34.6593L163.713 37.8068L164.266 37.6659L164.273 33.4393H163.599L163.653 36.4384L160.916 33.4393H160.242ZM165.291 33.4393V34.0051H166.969V37.7118H167.906V34.0051H169.584V33.4393H165.291Z" fill="white"/>
</svg>
