<svg width="97" height="38" viewBox="0 0 97 38" fill="none" xmlns="http://www.w3.org/2000/svg">
<path fill-rule="evenodd" clip-rule="evenodd" d="M89.9678 17.6972H86.1926V3.73132H89.7481V5.2947C90.1909 4.35533 91.3011 3.52388 92.7451 3.41763C95.1904 3.31307 96.8541 4.66901 96.8541 7.58665V17.6972H92.9682V7.17009C92.9682 5.92039 92.9682 4.87645 92.0793 4.66901C91.7456 4.56445 91.1905 4.66901 90.746 4.98102C90.1909 5.50383 89.9678 6.12783 89.9678 7.17009V17.6972ZM24.3206 10.7134C24.3206 13.319 24.3206 15.4035 23.8762 16.4475C23.5424 16.9669 23.2087 17.2806 22.4305 17.2806C21.7647 17.2806 21.3202 16.9669 21.0989 16.4458C20.5437 15.4035 20.5437 13.319 20.5437 10.7134C20.5437 8.21234 20.5437 6.02496 21.0972 4.98102C21.3202 4.45989 21.7647 4.14789 22.4305 4.14789C23.2087 4.14789 23.5424 4.45989 23.8762 4.98102C24.4313 6.02327 24.3206 8.21234 24.3206 10.7151V10.7134ZM25.7629 4.66901C24.874 3.93876 23.7638 3.41763 22.4305 3.41763C21.0989 3.41763 20.0993 3.94045 19.0997 4.66901C17.5434 5.92039 16.5438 8.21234 16.5438 10.7134C16.5438 13.319 17.5434 15.5081 19.0997 16.7595C20.0993 17.4881 21.0989 18.0092 22.4305 18.0092C23.7638 18.0092 24.8757 17.4881 25.7646 16.7595C27.43 15.5081 28.3188 13.319 28.3188 10.7134C28.3188 8.21234 27.43 5.92039 25.7646 4.66901H25.7629ZM64.5311 23.013V26.7638H63.7546C63.3101 25.2004 62.6426 23.8461 60.8649 23.7416C59.7546 23.6387 58.7551 24.2644 58.6444 25.2004C58.5337 26.1398 58.8658 26.9712 60.8649 28.0168C63.4208 29.3694 65.4199 29.9951 65.4199 32.8099C65.4199 35.8321 62.6426 37.2926 60.3098 37.2926H55.8654V32.0813H56.6436C57.2004 34.7898 58.0876 36.4577 60.1991 36.5623C61.5324 36.5623 62.5303 35.8321 62.5303 34.4778C62.5303 33.1219 61.6431 32.2887 59.5333 31.1419C57.2004 29.7877 55.7564 28.9528 55.7564 27.0775C55.7564 24.5764 57.6448 23.013 60.6435 23.013H64.5311ZM69.4182 17.6972V7.58665C69.4182 4.66901 67.7528 3.31307 65.3092 3.41763C63.6422 3.5222 62.6426 4.56445 62.1982 5.39758C61.6431 3.93876 60.4205 3.31307 58.6427 3.41763C57.2004 3.5222 56.0885 4.35533 55.644 5.2947V3.73132H52.2009V17.6955H55.9778V7.17177C55.9778 6.12952 56.0885 5.50383 56.756 4.9827C57.2004 4.6707 57.6448 4.56614 57.9769 4.6707C58.8658 4.87814 58.8658 5.92208 58.8658 7.17177V17.6989H62.6426V7.06552C62.6426 6.12614 62.864 5.50046 63.4208 4.97933C63.8652 4.66733 64.3097 4.56276 64.6418 4.66733C65.5306 4.87477 65.6413 5.91871 65.6413 7.1684V17.6955H69.4182V17.6972ZM30.8731 17.6972H34.7606V0.812001H30.8731V17.6972ZM43.9797 4.87814C44.7579 5.92039 44.7579 8.41978 44.7579 10.4014C44.7579 12.4859 44.8703 15.1961 43.9814 16.3412C43.6476 16.7595 43.3139 16.9669 42.7588 16.9669C41.9823 16.9669 41.5378 16.1338 41.3165 14.7779C41.2041 13.5282 41.2041 11.9648 41.2041 10.2968C41.2041 7.48377 41.4255 4.35533 42.8711 4.35533C43.4246 4.35533 43.6476 4.56445 43.9814 4.87814H43.9797ZM48.5364 17.6972V0.812001H44.6472V4.77358C44.3151 4.04332 43.537 3.5222 42.4267 3.5222C39.6494 3.5222 37.4289 6.23239 37.3165 10.4014C37.2059 13.2162 38.2054 17.9063 42.093 17.9063C43.6476 17.9063 44.5365 17.0715 44.8703 16.3412V17.6972H48.5364ZM78.7496 9.35915L77.527 10.0877C76.3061 10.818 76.0847 11.7573 75.9723 12.7979C75.8616 13.6327 75.8616 14.3613 75.9723 15.6127C76.083 16.7595 76.8612 16.9669 77.527 16.7595C78.3052 16.4458 78.7496 15.0915 78.7496 13.6327V9.35915ZM80.9701 4.14789C81.9714 4.6707 82.6372 5.50214 82.6372 7.37921V17.6972H78.971V16.1338C78.5282 17.2806 77.3056 18.0092 75.6386 18.0092C74.307 18.0092 71.9741 17.3852 71.9741 14.1539C71.9741 11.13 74.0839 10.506 76.4184 9.56659C78.5283 8.73347 78.7496 8.6289 78.7496 7.79577V5.50214C78.7496 4.56445 78.1945 4.14789 77.0826 4.14789C76.6398 4.25245 75.8616 4.45989 75.8616 4.98102C75.7493 5.6067 76.5275 5.6067 76.6398 6.5444C76.7505 8.0049 75.5279 8.52434 74.4176 8.42146C73.6395 8.42146 72.7506 8.0049 72.6399 6.85808C72.5292 4.98102 74.7497 3.41763 77.8608 3.41763C79.3047 3.41763 80.1936 3.73132 80.9701 4.14789ZM23.7638 28.8483L22.5429 29.5785C21.3202 30.3088 21.0989 31.2465 20.9865 32.2887C20.8775 33.1219 20.8775 33.9567 20.9865 35.1018C20.9865 36.3532 21.7647 36.5623 22.4305 36.2486C23.3194 35.9366 23.7638 34.6869 23.7638 33.1219V28.8483ZM25.986 23.637C26.9855 24.2627 27.5407 24.993 27.5407 26.8683V37.2909H23.9885V35.7275C23.5441 36.7697 22.3232 37.4983 20.6561 37.4983C19.2121 37.4983 16.9899 36.9789 16.9899 33.7475C16.9899 30.7253 19.1014 30.0997 21.3219 29.1603C23.5441 28.2243 23.7655 28.1197 23.7655 27.3895V25.0958C23.7655 24.0553 23.2103 23.6387 22.1001 23.7416C21.6557 23.7416 20.8792 23.9507 20.8792 24.4718C20.7668 25.2021 21.545 25.2021 21.6557 26.1398C21.7663 27.494 20.5454 28.0152 19.4335 28.0152C18.657 27.9106 17.7681 27.494 17.6557 26.3472C17.5451 24.5764 19.7672 23.0113 22.8766 23.0113C24.3223 23.0113 25.2095 23.2205 25.9876 23.6387L25.986 23.637ZM52.8684 27.182C52.8684 24.2644 51.2014 22.8039 48.7578 23.013C47.5369 23.1159 46.5356 23.637 45.9805 24.3673V20.3028H42.202V29.8922C42.202 33.4339 39.5354 36.7697 36.8688 36.6652C34.982 36.6652 34.5376 35.3109 34.3145 33.8521C33.9824 31.7676 33.9824 29.3711 34.2038 26.7638C34.4269 25.0975 34.8713 23.7416 36.2046 23.7416C37.2042 23.7416 37.3149 24.3673 36.8704 24.7838C36.426 25.3066 35.7602 25.8261 36.0923 26.9729C36.426 28.2243 38.5358 28.4317 39.537 27.4957C40.3135 26.6609 40.2029 25.305 39.6477 24.4718C38.9802 23.4296 37.87 23.013 36.2046 23.013C34.0931 23.013 30.0949 24.7838 30.0949 30.4117C30.0949 36.4577 34.2038 37.5 36.5367 37.5C39.2033 37.5 41.5345 35.3109 42.202 33.5384V37.2909H45.9788V26.7638C45.9788 25.7232 46.2002 25.0975 46.757 24.5747C47.2015 24.2627 47.7566 24.1581 48.0903 24.2627C48.9792 24.4718 48.9792 25.5141 48.9792 26.7638V37.2909H52.8667V27.182H52.8684ZM13.9896 0.5V6.44152H13.2114C12.5456 3.52388 11.1016 1.33313 9.10247 1.23025C7.76916 1.12569 6.99098 1.85425 6.32517 2.89651C5.65936 4.14789 5.32561 6.75352 5.32561 9.8786C5.32561 12.7979 5.4363 14.987 5.77004 16.5504C5.99142 17.2806 6.54655 18.4257 7.99054 18.4257C8.76872 18.4257 9.32385 18.2183 9.65759 17.8017C10.211 17.1761 10.3234 15.9247 10.3234 15.0915V12.2768C10.3234 11.2345 9.99134 10.6105 9.43454 10.2968C8.99178 10.0877 8.32429 10.0877 7.99222 9.98316V9.25459H14.211V24.1598H13.4345C13.1007 23.013 12.8793 22.1782 12.3225 21.2405C11.7691 20.3028 10.7678 19.2606 9.10247 19.2606C7.32473 19.156 5.99142 20.1983 5.99142 21.7616C5.99142 23.8461 7.32473 24.3673 9.76828 25.6186C12.1011 26.8683 15.1015 27.9123 15.1015 31.5585C15.1015 35.1018 11.8781 37.2926 8.2136 37.2926H2.32693V30.0997H3.10343C4.10299 35.5201 6.54655 36.4577 8.2136 36.4577C10.3234 36.4577 11.323 35.2064 11.323 33.4355C11.2123 31.1419 9.54523 30.3088 7.21404 29.162C3.88162 27.3912 2.32693 26.5563 2.32693 23.6387C2.43762 21.1359 4.54743 19.5742 6.88029 18.9486C1.99319 18.4257 0.549191 14.2584 0.659881 9.77572C0.659881 5.2947 3.43718 0.5 8.87941 0.5H13.9896Z" fill="white"/>
</svg>
