<svg width="108" height="32" viewBox="0 0 108 32" fill="none" xmlns="http://www.w3.org/2000/svg">
<g clip-path="url(#clip0_1929_18995)">
<path d="M102.813 30.748H4.43663C2.58405 30.748 1.125 29.3096 1.125 27.623V5.12305C1.125 3.42977 2.58322 1.99805 4.43663 1.99805H102.813C104.665 1.99805 106.125 3.42996 106.125 5.12305V27.623C106.125 29.3094 104.664 30.748 102.813 30.748Z" stroke="#B99855" stroke-width="1.25"/>
<path fill-rule="evenodd" clip-rule="evenodd" d="M102.813 1.97342C104.633 1.97342 106.123 3.38926 106.123 5.12305V27.623C106.123 29.3568 104.643 30.7727 102.813 30.7727H4.43663C2.61687 30.7727 1.12744 29.3568 1.12744 27.623V5.12305C1.12744 3.38926 2.6071 1.97342 4.43663 1.97342H102.813ZM102.813 1.37305H4.43663C2.26699 1.37305 0.5 3.06382 0.5 5.12305V27.623C0.5 29.6898 2.26699 31.373 4.43663 31.373H102.813C104.981 31.373 106.75 29.6898 106.75 27.623V5.12305C106.75 3.06382 104.981 1.37305 102.813 1.37305Z" fill="#B99855"/>
<path d="M56.4733 11.297C55.7637 11.297 55.1656 11.0595 54.6926 10.5919C54.2235 10.1374 53.9616 9.51086 53.9733 8.87121C53.9733 8.18854 54.2157 7.61061 54.6926 7.15238C55.1637 6.6848 55.7618 6.44727 56.4713 6.44727C57.173 6.44727 57.7711 6.6848 58.252 7.15238C58.7289 7.62557 58.9713 8.2035 58.9713 8.87121C58.9635 9.55574 58.7211 10.1337 58.252 10.59C57.7809 11.0614 57.1828 11.297 56.4733 11.297ZM35.3613 11.297C34.6674 11.297 34.0654 11.0632 33.5728 10.6013C33.0842 10.1412 32.8359 9.55948 32.8359 8.87308C32.8359 8.18667 33.0842 7.605 33.5728 7.1449C34.0556 6.68293 34.6577 6.44914 35.3613 6.44914C35.7053 6.44914 36.0396 6.5146 36.3601 6.64739C36.6748 6.77644 36.9309 6.95225 37.1205 7.16734L37.1674 7.22158L36.6377 7.71909L36.583 7.65737C36.2839 7.31697 35.8832 7.15051 35.3535 7.15051C34.8805 7.15051 34.4681 7.31136 34.1279 7.62931C33.7859 7.94914 33.6119 8.36809 33.6119 8.87495C33.6119 9.3818 33.7859 9.80076 34.1279 10.1206C34.4681 10.4385 34.8805 10.5994 35.3535 10.5994C35.8578 10.5994 36.2819 10.4385 36.6123 10.1206C36.8077 9.93355 36.9289 9.6717 36.9719 9.34066H35.2734V8.64116H37.701L37.7108 8.70475C37.7284 8.82258 37.746 8.94415 37.746 9.05637C37.746 9.70163 37.5427 10.2234 37.14 10.6087C36.6826 11.0651 36.0845 11.297 35.3613 11.297ZM63.4317 11.1979H62.6831L60.3903 7.68729L60.4099 8.31946V11.196H59.6613V6.54826H60.5154L60.5389 6.5838L62.6948 9.89053L62.6753 9.26023V6.54826H63.4317V11.1979ZM50.8478 11.1979H50.0894V7.24776H48.774V6.54826H52.1614V7.24776H50.8459V11.1979H50.8478ZM48.1563 11.1979H47.3999V6.54826H48.1563V11.1979ZM43.905 11.1979H43.1486V7.24776H41.8331V6.54826H45.2205V7.24776H43.905V11.1979ZM41.3542 11.1904H38.4535V6.54826H41.3542V7.24776H39.2119V8.52333H41.1451V9.21534H39.2119V10.4909H41.3542V11.1904ZM55.2477 10.1112C55.5859 10.4348 55.9963 10.5975 56.4733 10.5975C56.9639 10.5975 57.3646 10.4385 57.6988 10.1112C58.0311 9.79328 58.1992 9.37619 58.1992 8.87308C58.1992 8.36996 58.0311 7.95101 57.7008 7.63492C57.3626 7.31136 56.9502 7.14864 56.4752 7.14864C55.9846 7.14864 55.5839 7.30761 55.2516 7.63492C54.9193 7.95288 54.7512 8.36996 54.7512 8.87308C54.7512 9.37619 54.9174 9.79515 55.2477 10.1112Z" fill="white"/>
<path fill-rule="evenodd" clip-rule="evenodd" d="M53.9021 17.6889C52.055 17.6889 50.5578 19.0299 50.5578 20.8797C50.5578 22.7126 52.0648 24.0704 53.9021 24.0704C55.7493 24.0704 57.2465 22.72 57.2465 20.8797C57.2465 19.0299 55.7493 17.6889 53.9021 17.6889ZM53.9021 22.8061C52.8916 22.8061 52.0218 22.0056 52.0218 20.8722C52.0218 19.7219 52.8935 18.9383 53.9021 18.9383C54.9127 18.9383 55.7825 19.7219 55.7825 20.8722C55.7844 22.0131 54.9127 22.8061 53.9021 22.8061ZM46.6055 17.6889C44.7584 17.6889 43.2611 19.0299 43.2611 20.8797C43.2611 22.7126 44.7681 24.0704 46.6055 24.0704C48.4526 24.0704 49.9499 22.72 49.9499 20.8797C49.9499 19.0299 48.4507 17.6889 46.6055 17.6889ZM46.6055 22.8061C45.5949 22.8061 44.7251 22.0056 44.7251 20.8722C44.7251 19.7219 45.5969 18.9383 46.6055 18.9383C47.616 18.9383 48.4858 19.7219 48.4858 20.8722C48.4858 22.0131 47.616 22.8061 46.6055 22.8061ZM37.923 18.6633V20.0137H41.3104C41.2068 20.7712 40.9449 21.3304 40.5442 21.7138C40.0477 22.1889 39.2815 22.7051 37.9308 22.7051C35.8491 22.7051 34.2209 21.0966 34.2209 19.1047C34.2209 17.1128 35.8491 15.5043 37.9308 15.5043C39.0547 15.5043 39.8737 15.9289 40.4816 16.4713L41.4824 15.5137C40.638 14.7394 39.5141 14.1465 37.9386 14.1465C35.0829 14.1465 32.6865 16.3722 32.6865 19.0972C32.6865 21.8298 35.081 24.048 37.9386 24.048C39.4808 24.048 40.638 23.5654 41.5527 22.6565C42.4851 21.7643 42.7803 20.5056 42.7803 19.49C42.7803 19.1739 42.7549 18.8896 42.7021 18.6484H37.921C37.923 18.6465 37.923 18.6633 37.923 18.6633ZM73.4368 19.7144C73.1572 18.9981 72.3128 17.6814 70.581 17.6814C68.8649 17.6814 67.438 18.9738 67.438 20.8722C67.438 22.6639 68.8492 24.0629 70.7472 24.0629C72.2718 24.0629 73.1592 23.1708 73.5247 22.6471L72.393 21.9214C72.0177 22.4545 71.4958 22.8042 70.755 22.8042C70.0064 22.8042 69.4825 22.4788 69.1346 21.8373L73.5931 20.0698C73.5931 20.0717 73.4368 19.7144 73.4368 19.7144ZM68.8903 20.7805C68.8551 19.548 69.891 18.9214 70.6319 18.9214C71.2163 18.9214 71.703 19.1964 71.8691 19.5966L68.8903 20.7805ZM65.2683 23.8722H66.7324V14.4981H65.2683V23.8722ZM62.8641 18.3977H62.8114C62.481 18.0218 61.8536 17.6814 61.0522 17.6814C59.3888 17.6814 57.8564 19.0823 57.8564 20.8815C57.8564 22.6733 59.381 24.0573 61.0522 24.0573C61.8438 24.0573 62.481 23.7151 62.8114 23.3316H62.8641V23.7899C62.8641 25.0075 62.1839 25.6639 61.0874 25.6639C60.1902 25.6639 59.6331 25.0467 59.4064 24.5305L58.1339 25.0393C58.4994 25.8809 59.4748 26.9227 61.0854 26.9227C62.8016 26.9227 64.2558 25.9557 64.2558 23.5972V17.8722H62.872V18.3977C62.8739 18.3977 62.8641 18.3977 62.8641 18.3977ZM61.1832 22.8061C60.1726 22.8061 59.3282 21.9981 59.3282 20.8815C59.3282 19.7556 60.1726 18.9401 61.1832 18.9401C62.1839 18.9401 62.9599 19.7649 62.9599 20.8815C62.9697 21.9981 62.1859 22.8061 61.1832 22.8061ZM80.2917 14.4981H76.7909V23.8722H78.2549V20.3223H80.2936C81.914 20.3223 83.507 19.1982 83.507 17.4139C83.507 15.6297 81.9199 14.4981 80.2917 14.4981ZM80.3347 19.0131H78.253V15.7961H80.3347C81.4312 15.7961 82.0508 16.6621 82.0508 17.4046C82.0508 18.1396 81.4234 19.0131 80.3347 19.0131ZM89.3748 17.672C88.3115 17.672 87.215 18.1228 86.7615 19.1047L88.0594 19.6209C88.3389 19.1047 88.851 18.9289 89.3924 18.9289C90.1508 18.9289 90.9171 19.3628 90.9347 20.1371V20.2363C90.6727 20.0941 90.0981 19.8772 89.41 19.8772C88.0086 19.8772 86.5875 20.6103 86.5875 21.985C86.5875 23.2437 87.7369 24.0517 89.0172 24.0517C90.0003 24.0517 90.5418 23.6272 90.8799 23.1353H90.9327V23.8609H92.3439V20.2699C92.3439 18.5979 91.0461 17.672 89.3748 17.672ZM89.1911 22.8061C88.7122 22.8061 88.0418 22.5816 88.0418 22.0056C88.0418 21.2799 88.8784 21.005 89.5918 21.005C90.2368 21.005 90.5418 21.1378 90.9249 21.321C90.8193 22.1627 90.0766 22.7986 89.1911 22.8061ZM97.4925 17.8722L95.8115 21.9383H95.7587L94.0171 17.8722H92.4417L95.055 23.5561L93.5656 26.7151H95.0902L99.1109 17.8722H97.4925ZM84.3143 23.8722H85.7783V14.4981H84.3143V23.8722Z" fill="white"/>
<path opacity="0.2" fill-rule="evenodd" clip-rule="evenodd" d="M21.6878 19.4707L10.3138 25.654C9.6785 26.0038 9.11166 25.9794 8.74614 25.6615L8.68555 25.7195L8.74614 25.77C9.11166 26.086 9.6785 26.1122 10.3138 25.7625L21.766 19.538L21.6878 19.4707Z" fill="black"/>
<path opacity="0.12" fill-rule="evenodd" clip-rule="evenodd" d="M25.5899 17.3475L21.6787 19.4722L21.7491 19.5395L25.5802 17.456C26.1294 17.1567 26.3992 16.7639 26.3992 16.373C26.3659 16.7321 26.0864 17.0725 25.5899 17.3475Z" fill="black"/>
<path fill-rule="evenodd" clip-rule="evenodd" d="M9.94824 26.0932L18.9355 17.3424L22.1034 20.4265L11.4195 26.2107C11.0133 26.4307 10.5158 26.4274 10.1121 26.2015L9.94824 26.0932ZM18.0292 16.4599L9.46094 24.8024V8.11735L18.0292 16.4599ZM23.3835 13.0124L27.5695 15.2782C27.9809 15.5015 28.236 15.9199 28.236 16.3732C28.236 16.8265 27.9809 17.2449 27.5695 17.4682L23.2692 19.7957L19.8427 16.4599L23.3835 13.0124ZM9.85351 6.73402C9.93032 6.66152 10.0165 6.59818 10.1121 6.54485C10.5158 6.31902 11.0133 6.31568 11.4195 6.53568L22.2178 12.3815L18.9355 15.5774L9.85351 6.73402Z" fill="white"/>
</g>
<defs>
<clipPath id="clip0_1929_18995">
<rect width="107" height="31" fill="white" transform="translate(0.25 0.397461)"/>
</clipPath>
</defs>
</svg>
